# xmcd CD database file
#
# Track frame offsets:
#	150
#	14330
#	34966
#	47358
#	60284
#	73520
#	92432
#	106512
#	122124
#	138937
#	153103
#	167837
#	178265
#
# Disc length: 2556 seconds
#
# Revision: 0
# Processed by: cddbd v1.5.2PL0 Copyright (c) Steve Scherf et al.
# Submitted via: CDex 1.70beta2
#
DISCID=9a09fa0d
DTITLE=Francesco Buzzurro - L'Esploratore
DYEAR=2009
DGENRE=Jazz
TTITLE0=Hava nagila
TTITLE1=Libertango
TTITLE2=Amazing Grace
TTITLE3=Horos tou sakena
TTITLE4=Mi votu e mi rivotu
TTITLE5=Ochi chernye
TTITLE6=Dance of Yi people
TTITLE7=Granada
TTITLE8=Cielito lindo - El jarabe tabatio
TTITLE9=Tico tico
TTITLE10=Douce valse
TTITLE11=La danza
TTITLE12=Greensleaves - Pride of the Springfield road
EXTD=YEAR: 2009
EXTT0=
EXTT1=
EXTT2=
EXTT3=
EXTT4=
EXTT5=
EXTT6=
EXTT7=
EXTT8=
EXTT9=
EXTT10=
EXTT11=
EXTT12=
PLAYORDER=
